<svg width="400" height="400" viewBox="0 0 400 400" fill="none" xmlns="http://www.w3.org/2000/svg">
<g clip-path="url(#clip0_1139_476)">
<path d="M198.558 1C97.0134 1.00001 103.355 45.036 103.355 45.036L103.468 90.6569H200.37V104.355H64.9786C64.9786 104.355 0 96.9854 0 199.445C-7.24244e-06 301.905 56.7148 298.272 56.7148 298.272H90.5626V250.726C90.5626 250.726 88.7381 194.011 146.372 194.011H242.481C242.481 194.011 296.479 194.884 296.479 141.825V54.0923C296.479 54.0923 304.678 1 198.558 1ZM145.127 31.6781C154.768 31.6781 162.56 39.4703 162.56 49.1114C162.56 58.7524 154.768 66.5446 145.127 66.5446C135.485 66.5447 127.693 58.7524 127.693 49.1114C127.693 39.4703 135.485 31.6781 145.127 31.6781Z" fill="url(#paint0_linear_1139_476)"/>
<path d="M201.443 398.918C302.988 398.918 296.647 354.882 296.647 354.882L296.533 309.261H199.631V295.563H335.022C335.022 295.563 400.001 302.933 400.001 200.473C400.001 98.0129 343.286 101.646 343.286 101.646H309.438V149.192C309.438 149.192 311.263 205.906 253.629 205.906H157.52C157.52 205.906 103.522 205.034 103.522 258.093V345.826C103.522 345.826 95.3235 398.918 201.443 398.918ZM254.875 368.24C245.233 368.24 237.441 360.448 237.441 350.807C237.441 341.166 245.233 333.373 254.875 333.373C264.516 333.373 272.308 341.166 272.308 350.807C272.308 360.448 264.516 368.24 254.875 368.24Z" fill="url(#paint1_linear_1139_476)"/>
</g>
<defs>
<linearGradient id="paint0_linear_1139_476" x1="38.4408" y1="36.7916" x2="236.667" y2="233.04" gradientUnits="userSpaceOnUse">
<stop stop-color="#387EB8"/>
<stop offset="1" stop-color="#366994"/>
</linearGradient>
<linearGradient id="paint1_linear_1139_476" x1="160.112" y1="162.81" x2="372.986" y2="364.045" gradientUnits="userSpaceOnUse">
<stop stop-color="#FFE052"/>
<stop offset="1" stop-color="#FFC331"/>
</linearGradient>
<clipPath id="clip0_1139_476">
<rect width="400" height="400" fill="white"/>
</clipPath>
</defs>
</svg>
